<mxfile host="app.diagrams.net" modified="2022-11-02T07:33:37.418Z" agent="5.0 (Windows NT 10.0; Win64; x64) AppleWebKit/537.36 (KHTML, like Gecko) Chrome/105.0.0.0 Safari/537.36" etag="395CHzAxZiG9BFLDoa2M" version="20.5.1" type="github">
  <diagram id="mIEo4z_1PfWCWivBjc7a" name="第 1 页">
    <mxGraphModel dx="1422" dy="706" grid="1" gridSize="10" guides="1" tooltips="1" connect="1" arrows="1" fold="1" page="1" pageScale="1" pageWidth="827" pageHeight="1169" math="0" shadow="0">
      <root>
        <mxCell id="0" />
        <mxCell id="1" parent="0" />
        <mxCell id="yIYwi4nKfEt4vcDkT_VJ-1" value="" style="rounded=1;whiteSpace=wrap;html=1;fillColor=#1CB8C2;strokeWidth=0;strokeColor=#1CB8C2;arcSize=8;" vertex="1" parent="1">
          <mxGeometry x="70" y="60" width="710" height="150" as="geometry" />
        </mxCell>
        <mxCell id="yIYwi4nKfEt4vcDkT_VJ-2" value="&lt;span style=&quot;font-family: &amp;quot;comic sans ms&amp;quot;; font-size: 15px;&quot;&gt;Application&lt;/span&gt;&lt;br style=&quot;font-family: &amp;quot;comic sans ms&amp;quot;; font-size: 15px;&quot;&gt;&lt;span style=&quot;font-family: &amp;quot;comic sans ms&amp;quot;; font-size: 15px; text-align: left;&quot;&gt;Architechture&lt;/span&gt;" style="rounded=1;whiteSpace=wrap;html=1;strokeColor=#D7ED8C;strokeWidth=0;fillColor=#D7ED8C;fontColor=#000000;" vertex="1" parent="1">
          <mxGeometry x="625" y="140" width="120" height="60" as="geometry" />
        </mxCell>
        <mxCell id="yIYwi4nKfEt4vcDkT_VJ-3" value="&lt;font face=&quot;Comic Sans MS&quot; style=&quot;font-size: 14px&quot;&gt;Infrastructure&lt;br&gt;&lt;/font&gt;&lt;span style=&quot;font-family: &amp;quot;comic sans ms&amp;quot;; font-size: 15px; text-align: left;&quot;&gt;Architechture&lt;/span&gt;&lt;font face=&quot;Comic Sans MS&quot; style=&quot;font-size: 14px&quot;&gt;&lt;br&gt;&lt;/font&gt;" style="rounded=1;whiteSpace=wrap;html=1;strokeColor=#D7ED8C;strokeWidth=0;fillColor=#D7ED8C;fontColor=#000000;" vertex="1" parent="1">
          <mxGeometry x="625" y="70" width="120" height="60" as="geometry" />
        </mxCell>
        <mxCell id="yIYwi4nKfEt4vcDkT_VJ-4" value="&lt;span style=&quot;font-family: &amp;quot;comic sans ms&amp;quot;; font-size: 15px;&quot;&gt;Business&lt;/span&gt;&lt;br style=&quot;font-family: &amp;quot;comic sans ms&amp;quot;; font-size: 15px;&quot;&gt;&lt;span style=&quot;font-family: &amp;quot;comic sans ms&amp;quot;; font-size: 15px; text-align: left;&quot;&gt;Architechture&lt;/span&gt;" style="rounded=1;whiteSpace=wrap;html=1;strokeColor=#D7ED8C;strokeWidth=0;fillColor=#D7ED8C;fontColor=#000000;" vertex="1" parent="1">
          <mxGeometry x="490" y="140" width="120" height="60" as="geometry" />
        </mxCell>
        <mxCell id="yIYwi4nKfEt4vcDkT_VJ-5" value="" style="rounded=1;whiteSpace=wrap;html=1;fillColor=#1CB8C2;strokeWidth=0;strokeColor=#1CB8C2;arcSize=4;" vertex="1" parent="1">
          <mxGeometry x="70" y="220" width="710" height="360" as="geometry" />
        </mxCell>
        <mxCell id="yIYwi4nKfEt4vcDkT_VJ-6" value="" style="rounded=1;whiteSpace=wrap;html=1;strokeColor=#D7ED8C;strokeWidth=0;fillColor=#205B63;arcSize=4;" vertex="1" parent="1">
          <mxGeometry x="420" y="230" width="170" height="270" as="geometry" />
        </mxCell>
        <mxCell id="yIYwi4nKfEt4vcDkT_VJ-7" value="SOA" style="rounded=1;whiteSpace=wrap;html=1;strokeColor=#73A819;strokeWidth=0;fillColor=#73A819;fontColor=#FFFFFF;fontSize=16;fontFamily=Comic Sans MS;" vertex="1" parent="1">
          <mxGeometry x="430" y="240" width="150" height="50" as="geometry" />
        </mxCell>
        <mxCell id="yIYwi4nKfEt4vcDkT_VJ-8" value="" style="rounded=1;whiteSpace=wrap;html=1;strokeColor=#73A819;strokeWidth=0;fillColor=#73A819;" vertex="1" parent="1">
          <mxGeometry x="430" y="305" width="150" height="50" as="geometry" />
        </mxCell>
        <mxCell id="yIYwi4nKfEt4vcDkT_VJ-9" value="" style="rounded=1;whiteSpace=wrap;html=1;strokeColor=#73A819;strokeWidth=0;fillColor=#73A819;" vertex="1" parent="1">
          <mxGeometry x="430" y="370" width="150" height="50" as="geometry" />
        </mxCell>
        <mxCell id="yIYwi4nKfEt4vcDkT_VJ-10" value="" style="rounded=1;whiteSpace=wrap;html=1;strokeColor=#D7ED8C;strokeWidth=0;fillColor=#205B63;arcSize=4;" vertex="1" parent="1">
          <mxGeometry x="600" y="230" width="170" height="270" as="geometry" />
        </mxCell>
        <mxCell id="yIYwi4nKfEt4vcDkT_VJ-11" value="DATA" style="rounded=1;whiteSpace=wrap;html=1;strokeColor=#73A819;strokeWidth=0;fillColor=#73A819;fontColor=#FFFFFF;fontSize=16;fontFamily=Comic Sans MS;" vertex="1" parent="1">
          <mxGeometry x="610" y="240" width="150" height="50" as="geometry" />
        </mxCell>
        <mxCell id="yIYwi4nKfEt4vcDkT_VJ-12" value="" style="rounded=1;whiteSpace=wrap;html=1;strokeColor=#73A819;strokeWidth=0;fillColor=#73A819;" vertex="1" parent="1">
          <mxGeometry x="610" y="305" width="150" height="50" as="geometry" />
        </mxCell>
        <mxCell id="yIYwi4nKfEt4vcDkT_VJ-13" value="" style="rounded=1;whiteSpace=wrap;html=1;strokeColor=#73A819;strokeWidth=0;fillColor=#73A819;" vertex="1" parent="1">
          <mxGeometry x="610" y="370" width="150" height="50" as="geometry" />
        </mxCell>
        <mxCell id="yIYwi4nKfEt4vcDkT_VJ-14" value="" style="rounded=1;whiteSpace=wrap;html=1;strokeColor=#73A819;strokeWidth=0;fillColor=#73A819;" vertex="1" parent="1">
          <mxGeometry x="610" y="435" width="150" height="50" as="geometry" />
        </mxCell>
        <mxCell id="yIYwi4nKfEt4vcDkT_VJ-15" value="" style="rounded=1;whiteSpace=wrap;html=1;strokeColor=#73A819;strokeWidth=0;fillColor=#73A819;" vertex="1" parent="1">
          <mxGeometry x="430" y="435" width="150" height="50" as="geometry" />
        </mxCell>
        <mxCell id="yIYwi4nKfEt4vcDkT_VJ-16" value="" style="rounded=1;whiteSpace=wrap;html=1;fillColor=#1CB8C2;strokeWidth=0;strokeColor=#1CB8C2;arcSize=8;" vertex="1" parent="1">
          <mxGeometry x="70" y="590" width="710" height="110" as="geometry" />
        </mxCell>
        <mxCell id="yIYwi4nKfEt4vcDkT_VJ-17" value="" style="rounded=1;whiteSpace=wrap;html=1;strokeColor=#73A819;strokeWidth=0;fillColor=#7CCFA5;arcSize=6;" vertex="1" parent="1">
          <mxGeometry x="190" y="600" width="580" height="90" as="geometry" />
        </mxCell>
        <mxCell id="yIYwi4nKfEt4vcDkT_VJ-18" value="" style="rounded=1;whiteSpace=wrap;html=1;strokeColor=#73A819;strokeWidth=0;fillColor=#205B63;" vertex="1" parent="1">
          <mxGeometry x="410" y="609.38" width="170" height="67.5" as="geometry" />
        </mxCell>
        <mxCell id="yIYwi4nKfEt4vcDkT_VJ-19" value="&lt;span style=&quot;color: rgb(255 , 255 , 255) ; font-family: &amp;#34;comic sans ms&amp;#34; ; font-size: 15px&quot;&gt;Application&lt;/span&gt;&lt;br style=&quot;color: rgb(255 , 255 , 255) ; font-family: &amp;#34;comic sans ms&amp;#34; ; font-size: 15px&quot;&gt;&lt;span style=&quot;color: rgb(255 , 255 , 255) ; font-family: &amp;#34;comic sans ms&amp;#34; ; font-size: 15px ; text-align: left&quot;&gt;Architechture&lt;/span&gt;" style="rounded=1;whiteSpace=wrap;html=1;strokeColor=#73A819;strokeWidth=0;fillColor=#73A819;" vertex="1" parent="1">
          <mxGeometry x="420" y="616.88" width="150" height="50" as="geometry" />
        </mxCell>
        <mxCell id="yIYwi4nKfEt4vcDkT_VJ-20" value="" style="rounded=1;whiteSpace=wrap;html=1;strokeColor=#205B63;strokeWidth=0;fillColor=#205B63;" vertex="1" parent="1">
          <mxGeometry x="420" y="490" width="350" height="70" as="geometry" />
        </mxCell>
        <mxCell id="yIYwi4nKfEt4vcDkT_VJ-21" value="" style="rounded=1;whiteSpace=wrap;html=1;strokeColor=#73A819;strokeWidth=0;fillColor=#73A819;" vertex="1" parent="1">
          <mxGeometry x="430" y="500" width="150" height="50" as="geometry" />
        </mxCell>
        <mxCell id="yIYwi4nKfEt4vcDkT_VJ-22" value="" style="rounded=1;whiteSpace=wrap;html=1;strokeColor=#73A819;strokeWidth=0;fillColor=#73A819;" vertex="1" parent="1">
          <mxGeometry x="610" y="500" width="150" height="50" as="geometry" />
        </mxCell>
        <mxCell id="yIYwi4nKfEt4vcDkT_VJ-23" value="" style="rounded=1;whiteSpace=wrap;html=1;strokeColor=#D7ED8C;strokeWidth=0;fillColor=#205B63;arcSize=4;" vertex="1" parent="1">
          <mxGeometry x="240" y="230" width="170" height="270" as="geometry" />
        </mxCell>
        <mxCell id="yIYwi4nKfEt4vcDkT_VJ-24" value="" style="rounded=1;whiteSpace=wrap;html=1;strokeColor=#73A819;strokeWidth=0;fillColor=#73A819;" vertex="1" parent="1">
          <mxGeometry x="250" y="240" width="150" height="50" as="geometry" />
        </mxCell>
        <mxCell id="yIYwi4nKfEt4vcDkT_VJ-25" value="" style="rounded=1;whiteSpace=wrap;html=1;strokeColor=#73A819;strokeWidth=0;fillColor=#73A819;" vertex="1" parent="1">
          <mxGeometry x="250" y="305" width="150" height="50" as="geometry" />
        </mxCell>
        <mxCell id="yIYwi4nKfEt4vcDkT_VJ-26" value="" style="rounded=1;whiteSpace=wrap;html=1;strokeColor=#73A819;strokeWidth=0;fillColor=#73A819;" vertex="1" parent="1">
          <mxGeometry x="250" y="370" width="150" height="50" as="geometry" />
        </mxCell>
        <mxCell id="yIYwi4nKfEt4vcDkT_VJ-27" value="" style="rounded=1;whiteSpace=wrap;html=1;strokeColor=#73A819;strokeWidth=0;fillColor=#73A819;" vertex="1" parent="1">
          <mxGeometry x="250" y="435" width="150" height="50" as="geometry" />
        </mxCell>
        <mxCell id="yIYwi4nKfEt4vcDkT_VJ-28" value="" style="rounded=1;whiteSpace=wrap;html=1;strokeColor=#73A819;strokeWidth=0;fillColor=#205B63;" vertex="1" parent="1">
          <mxGeometry x="590" y="610.63" width="170" height="67.5" as="geometry" />
        </mxCell>
        <mxCell id="yIYwi4nKfEt4vcDkT_VJ-29" value="&lt;font color=&quot;#ffffff&quot; style=&quot;font-size: 14px&quot; face=&quot;Comic Sans MS&quot;&gt;Infrastructure&lt;br&gt;&lt;/font&gt;&lt;span style=&quot;color: rgb(255 , 255 , 255) ; font-family: &amp;#34;comic sans ms&amp;#34; ; font-size: 15px ; text-align: left&quot;&gt;Architechture&lt;/span&gt;&lt;font color=&quot;#ffffff&quot; style=&quot;font-size: 14px&quot; face=&quot;Comic Sans MS&quot;&gt;&lt;br&gt;&lt;br&gt;&lt;/font&gt;" style="rounded=1;whiteSpace=wrap;html=1;strokeColor=#73A819;strokeWidth=0;fillColor=#73A819;" vertex="1" parent="1">
          <mxGeometry x="600" y="618.13" width="150" height="50" as="geometry" />
        </mxCell>
        <mxCell id="yIYwi4nKfEt4vcDkT_VJ-30" value="" style="rounded=1;whiteSpace=wrap;html=1;strokeColor=#73A819;strokeWidth=0;fillColor=#205B63;" vertex="1" parent="1">
          <mxGeometry x="230" y="609.38" width="170" height="67.5" as="geometry" />
        </mxCell>
        <mxCell id="yIYwi4nKfEt4vcDkT_VJ-31" value="Business&lt;br style=&quot;font-size: 15px;&quot;&gt;&lt;span style=&quot;font-size: 15px; text-align: left;&quot;&gt;Architechture&lt;/span&gt;" style="rounded=1;whiteSpace=wrap;html=1;strokeColor=#73A819;strokeWidth=0;fillColor=#73A819;fontFamily=Comic Sans MS;fontSize=15;fontColor=#FFFFFF;fontStyle=0;arcSize=10;" vertex="1" parent="1">
          <mxGeometry x="240" y="616.88" width="150" height="50" as="geometry" />
        </mxCell>
        <mxCell id="yIYwi4nKfEt4vcDkT_VJ-32" value="Solution&lt;br style=&quot;font-size: 15px;&quot;&gt;&lt;div style=&quot;font-size: 15px;&quot;&gt;&lt;span style=&quot;font-size: 15px;&quot;&gt;Architechture&lt;/span&gt;&lt;/div&gt;" style="text;html=1;strokeColor=none;fillColor=none;align=left;verticalAlign=middle;whiteSpace=wrap;rounded=0;fontColor=#FFFFFF;fontStyle=1;fontFamily=Comic Sans MS;fontSize=15;" vertex="1" parent="1">
          <mxGeometry x="80" y="620.88" width="100" height="42" as="geometry" />
        </mxCell>
        <mxCell id="yIYwi4nKfEt4vcDkT_VJ-33" value="Projects" style="text;html=1;strokeColor=none;fillColor=none;align=center;verticalAlign=middle;whiteSpace=wrap;rounded=0;fontFamily=Comic Sans MS;fontSize=19;fontColor=#205B63;horizontal=0;fontStyle=1" vertex="1" parent="1">
          <mxGeometry x="180" y="630" width="60" height="30" as="geometry" />
        </mxCell>
        <mxCell id="yIYwi4nKfEt4vcDkT_VJ-34" value="Enterprise&lt;br style=&quot;font-size: 15px&quot;&gt;&lt;div style=&quot;font-size: 15px&quot;&gt;&lt;span style=&quot;font-size: 15px&quot;&gt;Architechture&lt;/span&gt;&lt;/div&gt;&lt;div style=&quot;font-size: 15px&quot;&gt;&lt;span style=&quot;font-size: 15px&quot;&gt;Technical&lt;/span&gt;&lt;/div&gt;&lt;div style=&quot;font-size: 15px&quot;&gt;&lt;span style=&quot;font-size: 15px&quot;&gt;Sub-Domain&lt;/span&gt;&lt;/div&gt;" style="text;html=1;strokeColor=none;fillColor=none;align=left;verticalAlign=middle;whiteSpace=wrap;rounded=0;fontColor=#FFFFFF;fontStyle=1;fontFamily=Comic Sans MS;fontSize=15;" vertex="1" parent="1">
          <mxGeometry x="80" y="470" width="110" height="70" as="geometry" />
        </mxCell>
        <mxCell id="yIYwi4nKfEt4vcDkT_VJ-35" value="Enterprise&lt;br style=&quot;font-size: 15px&quot;&gt;&lt;div style=&quot;font-size: 15px&quot;&gt;&lt;span style=&quot;font-size: 15px&quot;&gt;Architechture&lt;/span&gt;&lt;/div&gt;&lt;div style=&quot;font-size: 15px&quot;&gt;&lt;span style=&quot;font-size: 15px&quot;&gt;Domain&lt;/span&gt;&lt;/div&gt;" style="text;html=1;strokeColor=none;fillColor=none;align=left;verticalAlign=middle;whiteSpace=wrap;rounded=0;fontColor=#FFFFFF;fontStyle=1;fontFamily=Comic Sans MS;fontSize=15;" vertex="1" parent="1">
          <mxGeometry x="100" y="120" width="110" height="70" as="geometry" />
        </mxCell>
        <mxCell id="yIYwi4nKfEt4vcDkT_VJ-36" value="&lt;font face=&quot;Comic Sans MS&quot; style=&quot;font-size: 14px&quot;&gt;Infrastructure&lt;br&gt;&lt;/font&gt;&lt;span style=&quot;font-family: &amp;quot;comic sans ms&amp;quot;; font-size: 15px; text-align: left;&quot;&gt;Architechture&lt;/span&gt;&lt;font face=&quot;Comic Sans MS&quot; style=&quot;font-size: 14px&quot;&gt;&lt;br&gt;&lt;/font&gt;" style="rounded=1;whiteSpace=wrap;html=1;strokeColor=#D7ED8C;strokeWidth=0;fillColor=#D7ED8C;fontColor=#000000;" vertex="1" parent="1">
          <mxGeometry x="354" y="70" width="120" height="60" as="geometry" />
        </mxCell>
        <mxCell id="yIYwi4nKfEt4vcDkT_VJ-37" value="&lt;span style=&quot;font-family: &amp;quot;comic sans ms&amp;quot;; font-size: 15px;&quot;&gt;Application&lt;/span&gt;&lt;br style=&quot;font-family: &amp;quot;comic sans ms&amp;quot;; font-size: 15px;&quot;&gt;&lt;span style=&quot;font-family: &amp;quot;comic sans ms&amp;quot;; font-size: 15px; text-align: left;&quot;&gt;Architechture&lt;/span&gt;" style="rounded=1;whiteSpace=wrap;html=1;strokeColor=#D7ED8C;strokeWidth=0;fillColor=#D7ED8C;fontColor=#000000;" vertex="1" parent="1">
          <mxGeometry x="354" y="140" width="120" height="60" as="geometry" />
        </mxCell>
        <mxCell id="yIYwi4nKfEt4vcDkT_VJ-38" value="&lt;font face=&quot;Comic Sans MS&quot; style=&quot;font-size: 14px&quot;&gt;Infrastructure&lt;br&gt;&lt;/font&gt;&lt;span style=&quot;font-family: &amp;quot;comic sans ms&amp;quot;; font-size: 15px; text-align: left;&quot;&gt;Architechture&lt;/span&gt;&lt;font face=&quot;Comic Sans MS&quot; style=&quot;font-size: 14px&quot;&gt;&lt;br&gt;&lt;/font&gt;" style="rounded=1;whiteSpace=wrap;html=1;strokeColor=#D7ED8C;strokeWidth=0;fillColor=#D7ED8C;fontColor=#000000;" vertex="1" parent="1">
          <mxGeometry x="220" y="70" width="120" height="60" as="geometry" />
        </mxCell>
        <mxCell id="yIYwi4nKfEt4vcDkT_VJ-39" value="&lt;span style=&quot;font-family: &amp;quot;comic sans ms&amp;quot;; font-size: 15px;&quot;&gt;Application&lt;/span&gt;&lt;br style=&quot;font-family: &amp;quot;comic sans ms&amp;quot;; font-size: 15px;&quot;&gt;&lt;span style=&quot;font-family: &amp;quot;comic sans ms&amp;quot;; font-size: 15px; text-align: left;&quot;&gt;Architechture&lt;/span&gt;" style="rounded=1;whiteSpace=wrap;html=1;strokeColor=#D7ED8C;strokeWidth=0;fillColor=#D7ED8C;fontColor=#000000;" vertex="1" parent="1">
          <mxGeometry x="220" y="140" width="120" height="60" as="geometry" />
        </mxCell>
      </root>
    </mxGraphModel>
  </diagram>
</mxfile>
